<svg xmlns="http://www.w3.org/2000/svg" version="1.1" xmlns:xlink="http://www.w3.org/1999/xlink" xmlns:svgjs="http://svgjs.com/svgjs" width="1440" height="560" preserveAspectRatio="none" viewBox="0 0 1440 560"><g mask="url(&quot;#SvgjsMask1024&quot;)" fill="none"><rect width="1440" height="560" x="0" y="0" fill="#0e2a47"></rect><path d="M 0,28 C 57.6,64 172.8,194 288,208 C 403.2,222 460.8,94.2 576,98 C 691.2,101.8 748.8,235.4 864,227 C 979.2,218.6 1036.8,61 1152,56 C 1267.2,51 1382.4,172.8 1440,202L1440 560L0 560z" fill="#184a7e"></path><path d="M 0,434 C 96,403.2 288,279.6 480,280 C 672,280.4 768,425.4 960,436 C 1152,446.6 1344,353.6 1440,333L1440 560L0 560z" fill="#2264ab"></path></g><defs><mask id="SvgjsMask1024"><rect width="1440" height="560" fill="#ffffff"></rect></mask></defs></svg>